<?xml version="1.0" standalone="no"?>
<!DOCTYPE svg PUBLIC "-//W3C//DTD SVG 20010904//EN"
 "http://www.w3.org/TR/2001/REC-SVG-20010904/DTD/svg10.dtd">
<svg version="1.0" xmlns="http://www.w3.org/2000/svg"
 width="242.000000pt" height="242.000000pt" viewBox="0 0 242.000000 242.000000"
 preserveAspectRatio="xMidYMid meet">
<metadata>
Created by potrace 1.14, written by Peter Selinger 2001-2017
</metadata>
<g transform="translate(0.000000,242.000000) scale(0.100000,-0.100000)"
fill="#000000" stroke="none">
<path d="M380 2406 c-189 -33 -338 -186 -369 -376 -14 -85 -14 -1539 -1 -1634
29 -198 188 -358 385 -386 93 -13 1537 -13 1630 0 197 28 356 188 385 386 13
95 13 1549 -1 1634 -32 197 -186 349 -386 379 -102 16 -1554 13 -1643 -3z
m1208 -819 c336 -336 343 -344 340 -380 -3 -32 -35 -69 -328 -368 -196 -200
-338 -337 -357 -346 -28 -11 -38 -11 -65 1 -42 18 -673 651 -687 689 -7 18 -7
36 0 55 5 15 162 176 347 359 311 306 340 332 372 332 33 1 56 -20 378 -342z"/>
</g>
</svg>
